<?xml version="1.0" encoding="UTF-8"?>
<svg version="1.1" xmlns="http://www.w3.org/2000/svg" width="500" height="500">
<path d="M0 0 C165 0 330 0 500 0 C500 165 500 330 500 500 C335 500 170 500 0 500 C0 335 0 170 0 0 Z " fill="#FEFEFE" transform="translate(0,0)"/>
<path d="M0 0 C1.17260376 0.36097778 1.17260376 0.36097778 2.36889648 0.72924805 C7.30212909 2.33216294 11.444976 4.36374975 15.875 7.0625 C17.06622374 7.7460832 18.25896208 8.42703312 19.453125 9.10546875 C27.57776084 13.81939888 34.76865128 18.89090079 41.875 25.0625 C42.8340625 25.79082031 43.793125 26.51914063 44.78125 27.26953125 C48.75036893 30.57786949 51.45711301 34.73495934 54.3125 39 C54.880896 39.84175781 55.44929199 40.68351562 56.03491211 41.55078125 C62.83471627 51.78792384 67.99567188 62.38842888 71.875 74.0625 C72.16246094 74.86558594 72.44992187 75.66867188 72.74609375 76.49609375 C74.34916982 81.04453446 75.27758081 85.28314645 75.875 90.0625 C76.205 90.3925 76.535 90.7225 76.875 91.0625 C77.08456883 92.84965644 77.24311616 94.64293769 77.375 96.4375 C77.60736344 99.58270509 77.87375969 102.05877907 78.875 105.0625 C79.02494369 106.73880267 79.12332153 108.41994476 79.19140625 110.1015625 C79.23378418 111.13998291 79.27616211 112.17840332 79.31982422 113.24829102 C79.51119171 118.84122418 79.6809957 124.434177 79.82171631 130.02862549 C79.8751597 132.06859599 79.93633854 134.10822861 79.99853516 136.14794922 C81.05957019 172.72493725 75.26385899 206.98820691 51.875 236.0625 C53.4137943 239.75078099 55.63415718 242.01836844 58.49243164 244.7800293 C58.95928879 245.23432816 59.42614594 245.68862701 59.90715027 246.1566925 C60.9178594 247.13977518 61.93065482 248.12071654 62.94529915 249.09973717 C64.55307693 250.65404343 66.1517857 252.21713481 67.74790955 253.78340149 C72.28511266 258.23530403 76.82700678 262.68195593 81.40161133 267.09545898 C84.20293965 269.79941208 86.9840669 272.52278796 89.75326347 275.25962257 C90.80853621 276.29517398 91.87106181 277.32339037 92.94099617 278.34378624 C102.34246293 287.31947646 102.34246293 287.31947646 103.13671875 293.08203125 C102.69630832 299.78021381 98.63920873 302.74686936 93.875 307.0625 C93.05515625 307.83207031 93.05515625 307.83207031 92.21875 308.6171875 C89.54510544 310.77095673 87.53689439 311.09067547 84.125 311.375 C72.42870455 309.03818926 60.26594589 291.52352639 52.1875 283.375 C49.08238842 280.24313394 45.97386435 277.11471199 42.86328125 273.98828125 C42.16519852 273.28190018 41.46711578 272.5755191 40.74787903 271.84773254 C38.80879757 269.8990613 36.85134466 267.97332732 34.875 266.0625 C34.24403412 265.44845306 33.61306824 264.83440613 32.96298218 264.20175171 C32.35668976 263.64170441 31.75039734 263.0816571 31.12573242 262.50463867 C30.59453293 262.0076799 30.06333344 261.51072113 29.51603699 260.998703 C27.89032808 259.85396821 27.89032808 259.85396821 25.83833313 260.31684875 C23.09702893 261.35796443 20.74520957 262.83771389 18.25 264.375 C2.74865141 273.54085183 -13.55924342 276.18957971 -31.34375 276.265625 C-32.40049927 276.27132507 -33.45724854 276.27702515 -34.54602051 276.28289795 C-36.77481094 276.29229988 -39.00361497 276.29886268 -41.23242188 276.30273438 C-44.58749644 276.31239205 -47.94194497 276.34344275 -51.296875 276.375 C-72.62168419 276.48143381 -93.49753132 274.54710738 -111.125 261.0625 C-111.125 260.4025 -111.125 259.7425 -111.125 259.0625 C-112.01445312 258.81757813 -112.90390625 258.57265625 -113.8203125 258.3203125 C-119.3211296 256.22662088 -122.93215464 252.08527674 -127.125 248.0625 C-128.13240234 247.16724609 -128.13240234 247.16724609 -129.16015625 246.25390625 C-147.42085486 229.41806708 -154.87137046 206.56595651 -160.125 183.0625 C-160.3214209 182.21510254 -160.5178418 181.36770508 -160.72021484 180.49462891 C-170.29901594 137.55043451 -163.30933005 83.1259398 -140.0625 45.74609375 C-123.03481526 20.47822585 -101.31811124 2.54206134 -71.3125 -4.75 C-47.70508666 -9.27855035 -22.84509625 -7.06661378 0 0 Z " fill="#138F8B" transform="translate(279.125,68.9375)"/>
<path d="M0 0 C10.9597594 8.14852 18.90174702 18.91083403 25 31 C25.55945313 32.07765625 26.11890625 33.1553125 26.6953125 34.265625 C33.51459858 48.17833931 36.80398828 62.24104903 38.69140625 77.51806641 C38.98168116 79.85266665 39.3012685 82.18156911 39.625 84.51171875 C43.89203813 117.19944843 42.67221504 153.89478864 31 185 C24.63409696 179.75541414 18.86429388 173.97902678 13.0625 168.125 C12.08291763 167.14039081 11.10310163 166.156014 10.12304688 165.171875 C7.74639748 162.78351797 5.37212644 160.39284788 3 158 C3.40774658 157.46673096 3.81549316 156.93346191 4.2355957 156.3840332 C4.77273193 155.67593506 5.30986816 154.96783691 5.86328125 154.23828125 C6.66052612 153.19087769 6.66052612 153.19087769 7.47387695 152.12231445 C15.27155234 141.27841873 16.50971146 129.16245047 16.4375 116.125 C16.45748047 114.85269531 16.47746094 113.58039063 16.49804688 112.26953125 C16.49073544 97.95374121 12.53077523 84.86782643 3 74 C-9.77222975 64.28199911 -23.22868417 61.65728155 -39 63 C-49.76166557 65.15492941 -58.03106957 71.76055762 -64.43359375 80.48046875 C-71.46484116 91.79008117 -73.34469952 103.30646689 -73.25 116.375 C-73.25773437 117.43460937 -73.26546875 118.49421875 -73.2734375 119.5859375 C-73.23834561 133.90342815 -70.58406701 146.03988307 -61 157 C-56.02364062 161.86063009 -50.14839323 164.81640137 -44 168 C-43.53947407 175.2831323 -44.38665239 182.19917163 -45.5 189.375 C-46.71436794 197.26594468 -47.73777534 204.99797513 -47 213 C-45.90076459 214.30746709 -45.90076459 214.30746709 -43.1875 214.3125 C-39.21121981 213.92266861 -38.51850967 213.01617925 -36 210 C-32.15023052 202.24450509 -29.99661597 193.77376992 -27.89453125 185.41015625 C-27.05707715 182.21759106 -26.08044952 179.11759664 -25 176 C-19.18646325 180.13206909 -14.02403759 184.64455227 -8.96484375 189.6640625 C-8.24132217 190.3785556 -7.5178006 191.09304871 -6.77235413 191.82919312 C-5.25970304 193.32744132 -3.74975746 194.82842563 -2.24243164 196.33203125 C0.07540662 198.63783964 2.41128878 200.92432443 4.74804688 203.2109375 C6.21989133 204.67333135 7.69063532 206.13683381 9.16015625 207.6015625 C9.86205582 208.28392975 10.56395538 208.966297 11.28712463 209.66934204 C11.92206345 210.31035858 12.55700226 210.95137512 13.21118164 211.61181641 C13.77551407 212.17107819 14.3398465 212.73033997 14.92127991 213.30654907 C16 215 16 215 15.78367615 217.06820679 C13.86019821 221.80965724 9.48064991 225.36064121 6 229 C5.38640625 229.74378906 4.7728125 230.48757813 4.140625 231.25390625 C-4.29258807 240.43635106 -19.49196262 242.11150405 -31.4375 242.625 C-43.71891638 242.07204523 -53.77497938 236.82505743 -63 229 C-63.68320313 228.42894531 -64.36640625 227.85789062 -65.0703125 227.26953125 C-77.51866428 215.85434227 -85.72879703 199.79371759 -91 184 C-91.41378906 182.77023437 -91.82757813 181.54046875 -92.25390625 180.2734375 C-94.89648639 172.22719573 -96.91296597 164.24815308 -98.421875 155.9140625 C-98.8510881 153.07731566 -98.8510881 153.07731566 -100 151 C-101.32495869 140.16520594 -101.2496054 129.14286856 -101.29516602 118.24365234 C-101.30665755 116.34188378 -101.32706433 114.44014675 -101.35668945 112.53857422 C-101.55681603 99.60749053 -100.44268483 87.74868656 -97.4949646 75.15356445 C-96.80563863 72.15434411 -96.2297556 69.13651109 -95.65625 66.11328125 C-95.27129731 64.17959507 -94.88590101 62.24599714 -94.5 60.3125 C-94.21962891 58.84393555 -94.21962891 58.84393555 -93.93359375 57.34570312 C-92.67185859 51.09969627 -90.75076271 45.73006519 -88 40 C-87.0820518 37.75052253 -86.1652983 35.500557 -85.25 33.25 C-78.06204654 16.5022495 -69.1679369 6.23657962 -53 -2 C-51.99066406 -2.53367187 -50.98132813 -3.06734375 -49.94140625 -3.6171875 C-34.48877355 -10.7306231 -14.41035176 -8.85247626 0 0 Z " fill="#FDFEFE" transform="translate(266,88)"/>
<path d="M0 0 C7.9499505 5.8299637 12.51311389 14.51852359 14.41918945 24.11474609 C15.19048041 29.63152135 15.13903411 35.1699295 15.17016602 40.73046875 C15.18160706 42.14593566 15.2019321 43.56136217 15.23168945 44.9765625 C15.44536445 55.17566394 14.24156313 63.7024332 10.875 73.375 C7.875 73.375 7.875 73.375 5.125 70.8125 C2.59949775 68.64156334 2.02357313 68.38600542 -1.5 68.125 C-6.49187925 69.84633767 -9.37075558 72.75412128 -13.125 76.375 C-14.95378915 78.02588119 -16.78717819 79.67168025 -18.625 81.3125 C-20.12549946 82.66611322 -21.62567938 84.02008116 -23.125 85.375 C-26.38906176 84.00977672 -27.88306499 82.71871261 -29.6875 79.6875 C-30.08066406 79.04425781 -30.47382813 78.40101563 -30.87890625 77.73828125 C-40.17913798 60.09991072 -40.68498583 37.33396229 -35.125 18.375 C-31.44360041 9.42358654 -27.12827353 2.94451399 -18.8125 -2 C-12.20514474 -3.53659425 -5.95517757 -3.45784504 0 0 Z " fill="#FDFEFE" transform="translate(248.125,159.625)"/>
<path d="M0 0 C1.90625 0.4140625 1.90625 0.4140625 4.40625 1.9765625 C6.43991895 5.28127454 6.2531102 7.59860028 5.90625 11.4140625 C5.57625 12.4040625 5.24625 13.3940625 4.90625 14.4140625 C5.23625 15.4040625 5.56625 16.3940625 5.90625 17.4140625 C-5.07538115 17.22412863 -5.07538115 17.22412863 -8.84375 14.2265625 C-10.32694748 10.88936818 -10.69556389 9.02494585 -10.09375 5.4140625 C-7.58590691 0.60736325 -5.16868613 -0.3664367 0 0 Z " fill="#229693" transform="translate(217.09375,378.5859375)"/>
<path d="M0 0 C1.94140625 0.33984375 1.94140625 0.33984375 4.44140625 1.83984375 C6.56037771 5.37146285 6.73982073 8.32307812 5.94140625 12.33984375 C4.37890625 14.83984375 4.37890625 14.83984375 1.94140625 16.33984375 C-1.93145214 16.89310923 -4.10341249 16.90315577 -7.49609375 14.90234375 C-9.74054633 11.22144151 -9.91966336 7.55210319 -9.05859375 3.33984375 C-6.57340707 -0.05455757 -4.15336675 -0.19122315 0 0 Z " fill="#209592" transform="translate(167.05859375,378.66015625)"/>
<path d="M0 0 C2 2 2 2 2.3125 4.9375 C2 8 2 8 0.875 9.875 C-1.88090884 11.52854531 -3.85075452 11.39365568 -7 11 C-8.875 9.875 -8.875 9.875 -10 8 C-10.39310741 4.85514075 -10.47555213 2.86718329 -8.9375 0.0625 C-5.81651045 -1.6490104 -3.35466116 -0.79291991 0 0 Z " fill="#1F9591" transform="translate(301,384)"/>
<path d="M0 0 C2.875 -0.125 2.875 -0.125 6 0 C8 2 8 2 8.1953125 4.3828125 C8.17210937 5.28773438 8.14890625 6.19265625 8.125 7.125 C8.10695313 8.03507812 8.08890625 8.94515625 8.0703125 9.8828125 C8.04710937 10.58148438 8.02390625 11.28015625 8 12 C6.52093108 12.02689216 5.04172517 12.04634621 3.5625 12.0625 C2.32693359 12.07990234 2.32693359 12.07990234 1.06640625 12.09765625 C-1 12 -1 12 -2 11 C-2.04063832 9.33382885 -2.042721 7.66611905 -2 6 C-0.35 5.34 1.3 4.68 3 4 C1.35 4 -0.3 4 -2 4 C-1.34 2.68 -0.68 1.36 0 0 Z " fill="#4AA9A6" transform="translate(322,383)"/>
<path d="M0 0 C3.0625 0.375 3.0625 0.375 4.9375 2.1875 C6.0625 4.375 6.0625 4.375 6.0625 7.375 C3.4225 7.375 0.7825 7.375 -1.9375 7.375 C-1.6075 8.035 -1.2775 8.695 -0.9375 9.375 C1.0425 9.375 3.0225 9.375 5.0625 9.375 C4.0725 10.86 4.0725 10.86 3.0625 12.375 C-0.06356798 12.77407251 -2.08261207 12.84380951 -4.875 11.3125 C-6.5865104 8.19151045 -5.73041991 5.72966116 -4.9375 2.375 C-2.9375 0.375 -2.9375 0.375 0 0 Z " fill="#3BA29F" transform="translate(243.9375,382.625)"/>
<path d="M0 0 C1.8125 1.25 1.8125 1.25 3 3 C3 4.32 3 5.64 3 7 C0.36 7 -2.28 7 -5 7 C-4.67 7.66 -4.34 8.32 -4 9 C-2.02 8.67 -0.04 8.34 2 8 C2 8.99 2 9.98 2 11 C1 12 1 12 -2.4375 12.1875 C-6 12 -6 12 -8 10 C-8.55416667 3.90416667 -8.55416667 3.90416667 -6.8125 1.0625 C-4.33950907 -0.38718434 -2.82115488 -0.42317323 0 0 Z " fill="#359F9C" transform="translate(273,383)"/>
<path d="M0 0 C1.8125 1.25 1.8125 1.25 3 3 C3 4.32 3 5.64 3 7 C0.36 7 -2.28 7 -5 7 C-4.67 7.66 -4.34 8.32 -4 9 C-2.02 9 -0.04 9 2 9 C1.67 9.99 1.34 10.98 1 12 C-2.375 12.125 -2.375 12.125 -6 12 C-8 10 -8 10 -8.3125 6.5625 C-8 3 -8 3 -6.8125 1.0625 C-4.33950907 -0.38718434 -2.82115488 -0.42317323 0 0 Z " fill="#1D9490" transform="translate(197,383)"/>
<path d="M0 0 C0.99 0 1.98 0 3 0 C3.33 2.97 3.66 5.94 4 9 C4.66 9 5.32 9 6 9 C6.33 6.03 6.66 3.06 7 0 C8.32 0 9.64 0 11 0 C11 3.96 11 7.92 11 12 C3.28515625 12.09765625 3.28515625 12.09765625 1 12 C0 11 0 11 -0.09765625 8.49609375 C-0.08605469 7.48675781 -0.07445312 6.47742188 -0.0625 5.4375 C-0.05347656 4.42558594 -0.04445312 3.41367187 -0.03515625 2.37109375 C-0.02355469 1.58863281 -0.01195312 0.80617188 0 0 Z " fill="#41A5A2" transform="translate(252,383)"/>
<path d="M0 0 C1.32 0 2.64 0 4 0 C4 3.3 4 6.6 4 10 C4.99 9.67 5.98 9.34 7 9 C7.33 6.03 7.66 3.06 8 0 C8.99 0 9.98 0 11 0 C11 3.96 11 7.92 11 12 C4.1640625 12.1953125 4.1640625 12.1953125 2 12 C0 10 0 10 -0.1953125 7.6171875 C-0.17210937 6.71226562 -0.14890625 5.80734375 -0.125 4.875 C-0.10695312 3.96492188 -0.08890625 3.05484375 -0.0703125 2.1171875 C-0.04710937 1.41851562 -0.02390625 0.71984375 0 0 Z " fill="#3BA29F" transform="translate(225,383)"/>
<path d="M0 0 C6.93359375 -0.09765625 6.93359375 -0.09765625 9 0 C10 1 10 1 10.09765625 3.50390625 C10.08605469 4.51324219 10.07445312 5.52257812 10.0625 6.5625 C10.05347656 7.57441406 10.04445312 8.58632813 10.03515625 9.62890625 C10.02355469 10.41136719 10.01195312 11.19382812 10 12 C9.01 12 8.02 12 7 12 C7 9.03 7 6.06 7 3 C5.68 3 4.36 3 3 3 C3 5.97 3 8.94 3 12 C2.01 12 1.02 12 0 12 C0 8.04 0 4.08 0 0 Z " fill="#269895" transform="translate(176,383)"/>
<path d="M0 0 C1.9375 0.8125 1.9375 0.8125 3.9375 2.8125 C4.1875 5.8125 4.1875 5.8125 3.9375 8.8125 C1.9375 10.8125 1.9375 10.8125 -0.5625 11.0625 C-3.0625 10.8125 -3.0625 10.8125 -5.0625 8.8125 C-5.4028296 5.61340176 -5.58398335 3.6207992 -3.8125 0.875 C-2.0625 -0.1875 -2.0625 -0.1875 0 0 Z " fill="#F1F8F8" transform="translate(166.0625,381.1875)"/>
<path d="M0 0 C3.29714793 0.32971479 4.6226839 0.6226839 7 3 C6.625 6.625 6.625 6.625 6 10 C4.68 9.67 3.36 9.34 2 9 C2 9.66 2 10.32 2 11 C1.01 11 0.02 11 -1 11 C-2.50662097 7.98675805 -2.17770373 5.31713623 -2 2 C-1.34 1.34 -0.68 0.68 0 0 Z " fill="#E6F3F2" transform="translate(213,381)"/>
<path d="M0 0 C1.65 0 3.3 0 5 0 C5 0.66 5 1.32 5 2 C4.01 2 3.02 2 2 2 C2 2.66 2 3.32 2 4 C2.66 4 3.32 4 4 4 C4 4.99 4 5.98 4 7 C3.34 7 2.68 7 2 7 C2 9.97 2 12.94 2 16 C1.01 16 0.02 16 -1 16 C-1 13.03 -1 10.06 -1 7 C-1.66 7 -2.32 7 -3 7 C-3 6.01 -3 5.02 -3 4 C-2.34 4 -1.68 4 -1 4 C-0.67 2.68 -0.34 1.36 0 0 Z " fill="#209591" transform="translate(286,379)"/>
<path d="M0 0 C2.64 0 5.28 0 8 0 C7.67 0.99 7.34 1.98 7 3 C6.01 3.33 5.02 3.66 4 4 C3.67 6.64 3.34 9.28 3 12 C2.01 12 1.02 12 0 12 C0 8.04 0 4.08 0 0 Z " fill="#1F9591" transform="translate(305,383)"/>
<path d="M0 0 C0.99 0 1.98 0 3 0 C3 5.28 3 10.56 3 16 C2.01 16 1.02 16 0 16 C0 10.72 0 5.44 0 0 Z " fill="#14908C" transform="translate(339,379)"/>
<path d="M0 0 C0.99 0 1.98 0 3 0 C3 5.28 3 10.56 3 16 C2.01 16 1.02 16 0 16 C0 10.72 0 5.44 0 0 Z " fill="#19928E" transform="translate(333,379)"/>
<path d="M0 0 C0.99 0 1.98 0 3 0 C3.04898438 0.61488281 3.09796875 1.22976563 3.1484375 1.86328125 C3.22320312 2.67152344 3.29796875 3.47976563 3.375 4.3125 C3.44460937 5.11300781 3.51421875 5.91351563 3.5859375 6.73828125 C3.89564426 9.27224441 3.89564426 9.27224441 6 12 C4.33388095 12.042721 2.66617115 12.04063832 1 12 C0 11 0 11 -0.09765625 8.49609375 C-0.08605469 7.48675781 -0.07445312 6.47742188 -0.0625 5.4375 C-0.05347656 4.42558594 -0.04445312 3.41367187 -0.03515625 2.37109375 C-0.02355469 1.58863281 -0.01195312 0.80617188 0 0 Z " fill="#1D9490" transform="translate(252,383)"/>
<path d="M0 0 C0.99 0 1.98 0 3 0 C3 3.96 3 7.92 3 12 C2.34 12 1.68 12 1 12 C1 11.34 1 10.68 1 10 C0.34 9.67 -0.32 9.34 -1 9 C-0.67 6.03 -0.34 3.06 0 0 Z " fill="#1A928F" transform="translate(233,383)"/>
<path d="M0 0 C1.67542976 0.28604898 3.34385343 0.61781233 5 1 C4.67 2.65 4.34 4.3 4 6 C2.68 6 1.36 6 0 6 C-0.38218767 4.34385343 -0.71395102 2.67542976 -1 1 C-0.67 0.67 -0.34 0.34 0 0 Z " fill="#E1F0F0" transform="translate(295,386)"/>
<path d="M0 0 C0.99 0 1.98 0 3 0 C3 3.63 3 7.26 3 11 C2.01 11 1.02 11 0 11 C0 7.37 0 3.74 0 0 Z " fill="#1C9390" transform="translate(183,384)"/>
<path d="M0 0 C0 1.66666667 0 3.33333333 0 5 C-2.64 5 -5.28 5 -8 5 C-7.625 3.0625 -7.625 3.0625 -7 1 C-4.53721199 -0.231394 -2.7204945 -0.07159196 0 0 Z " fill="#67B7B5" transform="translate(197,383)"/>
<path d="M0 0 C1.32 0.33 2.64 0.66 4 1 C3.67 1.99 3.34 2.98 3 4 C4.32 3.67 5.64 3.34 7 3 C6.67 3.99 6.34 4.98 6 6 C4.33388095 6.042721 2.66617115 6.04063832 1 6 C0 5 0 5 -0.0625 2.4375 C-0.041875 1.633125 -0.02125 0.82875 0 0 Z " fill="#1E9491" transform="translate(320,389)"/>
<path d="M0 0 C-0.33 0.99 -0.66 1.98 -1 3 C-2.65 3.33 -4.3 3.66 -6 4 C-6.33 5.65 -6.66 7.3 -7 9 C-7.33 9 -7.66 9 -8 9 C-8.36190476 3.57142857 -8.36190476 3.57142857 -6.8125 1.125 C-4.43963721 -0.34781139 -2.74086056 -0.22223194 0 0 Z " fill="#39A19E" transform="translate(299,383)"/>
<path d="M0 0 C2.64 0 5.28 0 8 0 C7.67 0.99 7.34 1.98 7 3 C5.02 3 3.04 3 1 3 C0.67 2.01 0.34 1.02 0 0 Z " fill="#C9E5E4" transform="translate(192,390)"/>
<path d="M0 0 C2.64 0 5.28 0 8 0 C7.67 0.66 7.34 1.32 7 2 C3.9375 2.625 3.9375 2.625 1 3 C0.67 2.01 0.34 1.02 0 0 Z " fill="#D2E9E9" transform="translate(268,390)"/>
</svg>
